<?xml version="1.0" encoding="utf-8"?>
<!-- License: PD. Made by Mary Akveo: https://maryakveo.com/ -->
<svg fill="#000000" width="800px" height="800px" viewBox="0 0 24 24" id="bitcoin" data-name="Flat Color" xmlns="http://www.w3.org/2000/svg" class="icon flat-color"><path id="primary" d="M19,15.5a4.49,4.49,0,0,0-2.27-3.88A4.47,4.47,0,0,0,15,4.28V3a1,1,0,0,0-2,0V4H11V3A1,1,0,0,0,9,3V4H6A1,1,0,0,0,6,6H7V18H6a1,1,0,0,0,0,2H9v1a1,1,0,0,0,2,0V20h2v1a1,1,0,0,0,2,0V20A4.49,4.49,0,0,0,19,15.5ZM13.5,6a2.5,2.5,0,0,1,0,5H9V6Zm1,12H9V13h5.5a2.5,2.5,0,0,1,0,5Z" style="fill: rgb(0, 0, 0);"></path></svg>