<?xml version="1.0" encoding="utf-8"?>
<!-- Generator: Adobe Illustrator 25.0.0, SVG Export Plug-In . SVG Version: 6.00 Build 0)  -->
<svg version="1.1" id="Layer_1" xmlns="http://www.w3.org/2000/svg" xmlns:xlink="http://www.w3.org/1999/xlink" x="0px" y="0px"
	 viewBox="0 0 800 800" style="enable-background:new 0 0 800 800;" xml:space="preserve">
<path d="M741.2,301.7H56.8c-24.1,0-42.2-18.1-42.2-42.2s18.1-42.2,42.2-42.2h559.8l-96.5-72.4c-18.1-14.1-22.1-40.2-8-60.3
	c14.1-18.1,40.2-22.1,60.3-8l197,148.8c14.1,10.1,20.1,30.2,14.1,48.2C775.4,289.6,759.3,301.7,741.2,301.7L741.2,301.7z
	 M253.8,731.9c-8,0-18.1-2-26.1-8l-197-148.8c-14.1-10.1-20.1-30.2-14.1-48.2c6-18.1,22.1-28.1,40.2-28.1h684.4
	c24.1,0,42.2,18.1,42.2,42.2c0,24.1-18.1,42.2-42.2,42.2H183.4l96.5,72.4c18.1,14.1,22.1,40.2,8,60.3
	C277.9,727.9,265.8,731.9,253.8,731.9L253.8,731.9z"/>
</svg>
