<?xml version="1.0" encoding="utf-8"?>
<!-- Generator: Adobe Illustrator 25.0.0, SVG Export Plug-In . SVG Version: 6.00 Build 0)  -->
<svg version="1.1" id="Capa_1" xmlns="http://www.w3.org/2000/svg" xmlns:xlink="http://www.w3.org/1999/xlink" x="0px" y="0px"
	 viewBox="0 0 208.9 208.9" style="enable-background:new 0 0 208.9 208.9;" xml:space="preserve">
<style type="text/css">
	.st0{fill:#FFFFFF;}
</style>
<path class="st0" d="M19.4,150.6l46.1-46.1L19.4,58.3c-10.7-10.7-10.7-28.2,0-38.9l0,0c10.7-10.7,28.2-10.7,38.9,0l46.1,46.1
	l46.1-46.1c10.7-10.7,28.2-10.7,38.9,0l0,0c10.7,10.7,10.7,28.2,0,38.9l-46.1,46.1l46.1,46.1c10.7,10.7,10.7,28.2,0,38.9l0,0
	c-10.7,10.7-28.2,10.7-38.9,0l-46.1-46.1l-46.1,46.1c-10.7,10.7-28.2,10.7-38.9,0l0,0C8.7,178.7,8.7,161.3,19.4,150.6z"/>
</svg>
