<?xml version="1.0" encoding="utf-8"?>
<!-- Generator: Adobe Illustrator 25.0.0, SVG Export Plug-In . SVG Version: 6.00 Build 0)  -->
<svg version="1.1" id="Layer_1" xmlns="http://www.w3.org/2000/svg" xmlns:xlink="http://www.w3.org/1999/xlink" x="0px" y="0px"
	 viewBox="0 0 800 800" style="enable-background:new 0 0 800 800;" xml:space="preserve">
<style type="text/css">
	.st0{fill:none;stroke:#000000;stroke-width:66.6667;stroke-linecap:round;stroke-linejoin:round;stroke-miterlimit:133.3333;}
</style>
<path class="st0" d="M47,312.7v-78.4c0-43.3,35.1-78.4,78.4-78.4h78.4 M47,312.7c52.3,0,156.9-31.4,156.9-156.9 M47,312.7v156.9
	 M753,312.7v-78.4c0-43.3-35.1-78.4-78.4-78.4h-78.4 M753,312.7c-52.3,0-156.9-31.4-156.9-156.9 M753,312.7v78.4 M203.9,155.8h392.2
	 M47,469.6v78.4c0,43.3,35.1,78.4,78.4,78.4h78.4 M47,469.6c52.3,0,156.9,31.4,156.9,156.9 M203.9,626.5h156.9"/>
<circle class="st0" cx="400" cy="391.2" r="78.4"/>
<path class="st0" d="M635.3,508.8v117.7 M635.3,744.2V626.5 M635.3,626.5H517.7 M635.3,626.5H753"/>
</svg>
