<?xml version="1.0" encoding="utf-8"?>
<!-- Generator: Adobe Illustrator 25.0.0, SVG Export Plug-In . SVG Version: 6.00 Build 0)  -->
<svg version="1.1" id="Layer_1" xmlns="http://www.w3.org/2000/svg" xmlns:xlink="http://www.w3.org/1999/xlink" x="0px" y="0px"
	 viewBox="0 0 800 800" style="enable-background:new 0 0 800 800;" xml:space="preserve">
<style type="text/css">
	.st0{fill:none;stroke:#FFFFFF;stroke-width:66.6667;stroke-linecap:round;stroke-linejoin:round;stroke-miterlimit:133.3333;}
</style>
<path class="st0" d="M549.2,180.3l70.6,70.6 M594.5,118.1L403.6,309c-9.8,9.9-16.6,22.4-19.3,36.1l-17.7,88.3l88.3-17.7
	c13.7-2.7,26.2-9.5,36.1-19.3l190.9-190.9c24.1-24.1,24.1-63.2,0-87.4S618.7,94,594.5,118.1z"/>
<path class="st0" d="M633.3,500v100c0,36.8-29.8,66.7-66.7,66.7H200c-36.8,0-66.7-29.8-66.7-66.7V233.3c0-36.8,29.8-66.7,66.7-66.7
	h100"/>
</svg>
