<?xml version="1.0" encoding="utf-8"?>
<!-- License: PD. Made by Mary Akveo: https://maryakveo.com/ -->
<svg fill="#000000" width="800px" height="800px" viewBox="0 0 24 24" id="inbox-in" data-name="Flat Color" xmlns="http://www.w3.org/2000/svg" class="icon flat-color"><path id="secondary" d="M15.71,8.29a1,1,0,0,0-1.42,0L13,9.59V3a1,1,0,0,0-2,0V9.59L9.71,8.29A1,1,0,0,0,8.29,9.71l3,3a1,1,0,0,0,1.42,0l3-3A1,1,0,0,0,15.71,8.29Z" style="fill: rgb(44, 169, 188);"></path><path id="primary" d="M21,14.8l-2-10A1,1,0,0,0,18,4H16a1,1,0,0,0,0,2h1.18l1.6,8H16.62a2,2,0,0,0-1.79,1.11l-.45.89H9.62l-.45-.89A2,2,0,0,0,7.38,14H5.22l1.6-8H8A1,1,0,0,0,8,4H6a1,1,0,0,0-1,.8l-2,10A1.36,1.36,0,0,0,3,15v5a2,2,0,0,0,2,2H19a2,2,0,0,0,2-2V15A1.36,1.36,0,0,0,21,14.8Z" style="fill: rgb(0, 0, 0);"></path></svg>