<?xml version="1.0" encoding="utf-8"?>
<!-- Generator: Adobe Illustrator 25.0.0, SVG Export Plug-In . SVG Version: 6.00 Build 0)  -->
<svg version="1.1" id="Layer_1" xmlns="http://www.w3.org/2000/svg" xmlns:xlink="http://www.w3.org/1999/xlink" x="0px" y="0px"
	 viewBox="0 0 512 512" style="enable-background:new 0 0 512 512;" xml:space="preserve">
<style type="text/css">
	.st0{fill:#2B3248;}
</style>
<g>
	<g>
		<g>
			<g>
				<g>
					<path class="st0" d="M22.9,198c0-103.2,84-187.2,187.2-187.2s187.2,84,187.2,187.2s-84,187.2-187.2,187.2S22.9,301.2,22.9,198z
						 M88.9,198c0,66.8,54.4,121.1,121.1,121.1C276.7,319,331,264.8,331,198S276.6,76.9,209.9,76.9C143.3,76.9,88.9,131.2,88.9,198z
						"/>
				</g>
			</g>
		</g>
		<g>
			<g>
				<path class="st0" d="M455,501c8.5,0,16.8-3.3,23.4-9.6c12.9-12.9,12.9-33.8,0-46.7L330.6,297c-12.9-12.9-33.8-12.9-46.7,0
					s-12.9,33.8,0,46.7l147.7,147.7C438,497.7,446.5,501,455,501z"/>
			</g>
		</g>
	</g>
</g>
</svg>
