<?xml version="1.0" encoding="utf-8"?>
<!-- License: MIT. Made by element-plus: https://github.com/element-plus/element-plus-icons -->
<svg width="800px" height="800px" viewBox="0 0 1024 1024" class="icon" xmlns="http://www.w3.org/2000/svg"><path fill="#000000" d="M160 448a32 32 0 01-32-32V160.064a32 32 0 0132-32h256a32 32 0 0132 32V416a32 32 0 01-32 32H160zm448 0a32 32 0 01-32-32V160.064a32 32 0 0132-32h255.936a32 32 0 0132 32V416a32 32 0 01-32 32H608zM160 896a32 32 0 01-32-32V608a32 32 0 0132-32h256a32 32 0 0132 32v256a32 32 0 01-32 32H160zm448 0a32 32 0 01-32-32V608a32 32 0 0132-32h255.936a32 32 0 0132 32v256a32 32 0 01-32 32H608z"/></svg>