<?xml version="1.0" encoding="utf-8"?>
<!-- Generator: Adobe Illustrator 25.0.0, SVG Export Plug-In . SVG Version: 6.00 Build 0)  -->
<svg version="1.1" id="Layer_1" xmlns="http://www.w3.org/2000/svg" xmlns:xlink="http://www.w3.org/1999/xlink" x="0px" y="0px"
	 viewBox="0 0 512 512" style="enable-background:new 0 0 512 512;" xml:space="preserve">
<g>
	<path d="M430.4,66h-42.8V18.2h-84.8V66H81.6c-8.6,0-15.4,7-15.4,15.4v397.1c0,8.6,7,15.4,15.4,15.4h348.7c8.6,0,15.4-7,15.4-15.4
		V81.3C445.7,72.9,438.8,66,430.4,66z M333.5,49h23.3v71h-23.3V49z M415,463H97V96.9h205.7v54.1h84.8V96.9H415V463z"/>
	<path d="M372.2,186.3H138.7c-8.6,0-15.4,7-15.4,15.4c0,8.6,7,15.4,15.4,15.4h233.5c8.6,0,15.4-7,15.4-15.4
		C387.6,193.1,380.6,186.3,372.2,186.3z"/>
	<path d="M372.2,293.7H138.7c-8.6,0-15.4,7-15.4,15.4c0,8.6,7,15.4,15.4,15.4h233.5c8.6,0,15.4-7,15.4-15.4
		C387.6,300.7,380.6,293.7,372.2,293.7z"/>
	<path d="M372.2,407.5H138.7c-8.6,0-15.4,7-15.4,15.4c0,8.6,7,15.4,15.4,15.4h233.5c8.6,0,15.4-7,15.4-15.4
		C387.6,414.5,380.6,407.5,372.2,407.5z"/>
</g>
</svg>
