<?xml version="1.0" encoding="utf-8"?>
<!-- Generator: Adobe Illustrator 25.0.0, SVG Export Plug-In . SVG Version: 6.00 Build 0)  -->
<svg version="1.1" id="Layer_1" xmlns="http://www.w3.org/2000/svg" xmlns:xlink="http://www.w3.org/1999/xlink" x="0px" y="0px"
	 viewBox="0 0 512 512" style="enable-background:new 0 0 512 512;" xml:space="preserve">
<g>
	<g>
		<path d="M438.3,226c20.6,0,37.2-16.6,37.2-37.2s-16.6-37.2-37.2-37.2H277.3c18.8,21.8,33.7,47,44.1,74.4
			C321.4,226,438.3,226,438.3,226z"/>
	</g>
	<g>
		<path d="M334.2,350.2h104c20.6,0,37.2-16.6,37.2-37.2s-16.6-37.2-37.2-37.2h-104c1.8,12.2,2.7,24.6,2.7,37.2
			S336.1,338,334.2,350.2z"/>
	</g>
	<g>
		<path d="M438.3,474.3c20.6,0,37.2-16.6,37.2-37.2s-16.6-37.2-37.2-37.2h-117c-10.2,27.5-25.3,52.6-44.1,74.4
			C277.2,474.3,438.3,474.3,438.3,474.3z"/>
	</g>
	<g>
		<path d="M438.3,27.3H173.9c-19.7,0-37.4,14.3-39,33.9c-0.8,9,1.7,17.2,6.3,24.1c6.7,9.9,18,16.5,30.8,16.5h0.5h264.2
			c19.5,0,36.8-14.2,38.7-33.6C477.5,46.1,460.1,27.3,438.3,27.3z"/>
	</g>
	<g>
		<g>
			<path d="M126,450.7c-39.8-3.4-69.1-18.6-89.5-39.5l29.3-41c14,14.8,34.6,28.1,60.4,32.6v-59.9c-39-9.9-81.6-24.3-81.6-76
				c0-38.3,30.4-70.9,81.6-76.3v-35.4h36v36c30.8,3.4,56.6,15.1,77,33.7l-30,39.5c-13.7-12.5-30-20.4-47.1-24.7v53.5
				c39,9.9,82.8,25,82.8,76.7c0,42.1-27.3,74.4-82.8,80.1v34.6h-36L126,450.7L126,450.7z M126,284.1v-46.4
				c-17.1,2.3-26.5,11.7-26.5,24.7C99.5,273.5,110,279.6,126,284.1z M162,352V403c18.6-3.8,28.1-14.8,28.1-26.5
				C190.1,363.8,178.4,357.4,162,352z"/>
		</g>
	</g>
</g>
</svg>
