<?xml version="1.0" encoding="utf-8"?>
<!-- Generator: Adobe Illustrator 25.0.0, SVG Export Plug-In . SVG Version: 6.00 Build 0)  -->
<svg version="1.1" id="_02_Out" xmlns="http://www.w3.org/2000/svg" xmlns:xlink="http://www.w3.org/1999/xlink" x="0px" y="0px"
	 viewBox="0 0 800 800" style="enable-background:new 0 0 800 800;" xml:space="preserve">
<style type="text/css">
	.st0{fill-rule:evenodd;clip-rule:evenodd;}
</style>
<g id="Group_7">
	<path id="Path_2" class="st0" d="M708.9,355.9c-24.4,0-44.1,19.7-44.1,44.1c0,0,0,0,0,0v264.8H135.2V400
		c0-24.4-19.8-44.1-44.1-44.1S47,375.6,47,400v308.9c0,24.4,19.7,44.1,44.1,44.1c0,0,0,0,0,0h617.8c24.4,0,44.1-19.7,44.1-44.1
		c0,0,0,0,0,0V400C753,375.6,733.3,355.9,708.9,355.9C708.9,355.9,708.9,355.9,708.9,355.9z"/>
	<path id="Path_3" class="st0" d="M343.6,513.8c0,31.4,25.6,56.8,57.1,56.3c31-0.4,55.6-26.2,55.6-57.2V272.1h91.4
		c29.6,0,45-35.3,24.9-57L424.9,55.2c-13.4-14.5-36.4-14.5-49.9,0L227.3,215.1c-20.1,21.7-4.7,57,24.9,57h91.4V513.8z"/>
</g>
</svg>
